<?xml version="1.0" encoding="UTF-8" standalone="no"?>
<!-- Created with Inkscape (http://www.inkscape.org/) -->

<svg
   xmlns:dc="http://purl.org/dc/elements/1.1/"
   xmlns:cc="http://creativecommons.org/ns#"
   xmlns:rdf="http://www.w3.org/1999/02/22-rdf-syntax-ns#"
   xmlns:svg="http://www.w3.org/2000/svg"
   xmlns="http://www.w3.org/2000/svg"
   xmlns:sodipodi="http://sodipodi.sourceforge.net/DTD/sodipodi-0.dtd"
   xmlns:inkscape="http://www.inkscape.org/namespaces/inkscape"
   version="1.1"
   id="svg2"
   xml:space="preserve"
   width="343.8493"
   height="129.5489"
   viewBox="0 0 343.84931 129.5489"
   sodipodi:docname="AyalonHighways.svg"
   inkscape:version="0.92.3 (2405546, 2018-03-11)"><metadata
     id="metadata8"><rdf:RDF><cc:Work
         rdf:about=""><dc:format>image/svg+xml</dc:format><dc:type
           rdf:resource="http://purl.org/dc/dcmitype/StillImage" /><dc:title></dc:title></cc:Work></rdf:RDF></metadata><defs
     id="defs6"><clipPath
       clipPathUnits="userSpaceOnUse"
       id="clipPath26"><path
         d="M 0,0 H 419.528 V 595.276 H 0 Z"
         id="path24"
         inkscape:connector-curvature="0" /></clipPath><clipPath
       clipPathUnits="userSpaceOnUse"
       id="clipPath38"><path
         d="M 0,290.002 V 94.961 h 362.738 l 26.205,244.041 z"
         id="path36"
         inkscape:connector-curvature="0" /></clipPath><clipPath
       clipPathUnits="userSpaceOnUse"
       id="clipPath50"><path
         d="M 0,0 H 419.528 V 595.276 H 0 Z"
         id="path48"
         inkscape:connector-curvature="0" /></clipPath><clipPath
       clipPathUnits="userSpaceOnUse"
       id="clipPath94"><path
         d="M 357.466,53.402 H 391.21 V 79.995 H 357.466 Z"
         id="path92"
         inkscape:connector-curvature="0" /></clipPath><clipPath
       clipPathUnits="userSpaceOnUse"
       id="clipPath110"><path
         d="m 278.094,53.815 h 48.464 V 80.25 h -48.464 z"
         id="path108"
         inkscape:connector-curvature="0" /></clipPath><clipPath
       clipPathUnits="userSpaceOnUse"
       id="clipPath782"><path
         d="M 0,0 H 419.528 V 595.276 H 0 Z"
         id="path780"
         inkscape:connector-curvature="0" /></clipPath><clipPath
       clipPathUnits="userSpaceOnUse"
       id="clipPath814"><path
         d="M 0,0 H 419.528 V 595.276 H 0 Z"
         id="path812"
         inkscape:connector-curvature="0" /></clipPath><clipPath
       clipPathUnits="userSpaceOnUse"
       id="clipPath838"><path
         d="M 0,0 H 419.528 V 595.276 H 0 Z"
         id="path836"
         inkscape:connector-curvature="0" /></clipPath><clipPath
       clipPathUnits="userSpaceOnUse"
       id="clipPath866"><path
         d="M 0,0 H 419.528 V 595.276 H 0 Z"
         id="path864"
         inkscape:connector-curvature="0" /></clipPath></defs><sodipodi:namedview
     pagecolor="#ffffff"
     bordercolor="#666666"
     borderopacity="1"
     objecttolerance="10"
     gridtolerance="10"
     guidetolerance="10"
     inkscape:pageopacity="0"
     inkscape:pageshadow="2"
     inkscape:window-width="1920"
     inkscape:window-height="1005"
     id="namedview4"
     showgrid="false"
     fit-margin-top="0"
     fit-margin-left="0"
     fit-margin-right="0"
     fit-margin-bottom="0"
     inkscape:zoom="2.1543848"
     inkscape:cx="122.72806"
     inkscape:cy="61.204958"
     inkscape:window-x="-9"
     inkscape:window-y="-9"
     inkscape:window-maximized="1"
     inkscape:current-layer="g10" /><g
     id="g10"
     inkscape:groupmode="layer"
     inkscape:label="131903676028646180"
     transform="matrix(1.3333333,0,0,-1.3333333,-38.484133,200.56453)"><g
       id="g1794"
       transform="matrix(2.3384526,0,0,2.3384526,-38.631894,-71.288298)"><g
         transform="translate(112.2357,53.8137)"
         id="g800"><path
           inkscape:connector-curvature="0"
           id="path802"
           style="fill:none;stroke:#000000;stroke-width:1.09000003;stroke-linecap:round;stroke-linejoin:round;stroke-miterlimit:10;stroke-dasharray:none;stroke-opacity:1"
           d="M 0,0 4.205,8.566" /></g><g
         transform="translate(109.3656,84.4659)"
         id="g804"><path
           inkscape:connector-curvature="0"
           id="path806"
           style="fill:none;stroke:#000000;stroke-width:1.09000003;stroke-linecap:round;stroke-linejoin:round;stroke-miterlimit:10;stroke-dasharray:none;stroke-opacity:1"
           d="M 0,0 -3.17,9.793" /></g><g
         id="g808"><g
           clip-path="url(#clipPath814)"
           id="g810"><g
             transform="translate(125.6554,65.1279)"
             id="g816"><path
               inkscape:connector-curvature="0"
               id="path818"
               style="fill:none;stroke:#000000;stroke-width:1.09000003;stroke-linecap:butt;stroke-linejoin:miter;stroke-miterlimit:10;stroke-dasharray:none;stroke-opacity:1"
               d="m 0,0 c 5.401,4.532 6.106,12.585 1.573,17.986 -4.532,5.401 -12.584,6.105 -17.985,1.573 C -21.813,15.027 -22.518,6.974 -17.986,1.573 -13.453,-3.828 -5.401,-4.532 0,0 Z" /></g></g></g><g
         transform="translate(138.5923,68.8281)"
         id="g820"><path
           inkscape:connector-curvature="0"
           id="path822"
           style="fill:none;stroke:#000000;stroke-width:1.09000003;stroke-linecap:round;stroke-linejoin:round;stroke-miterlimit:10;stroke-dasharray:none;stroke-opacity:1"
           d="M 0,0 -29.369,15.81" /></g><g
         transform="translate(129.7697,73.5863)"
         id="g824"><path
           inkscape:connector-curvature="0"
           id="path826"
           style="fill:#00b9f1;fill-opacity:1;fill-rule:nonzero;stroke:none"
           d="m 0,0 -20.382,10.826 7.123,-21.952 4.218,8.347 z" /></g><g
         transform="translate(129.7697,73.5863)"
         id="g828"><path
           inkscape:connector-curvature="0"
           id="path830"
           style="fill:none;stroke:#000000;stroke-width:1.09000003;stroke-linecap:butt;stroke-linejoin:miter;stroke-miterlimit:10;stroke-dasharray:none;stroke-opacity:1"
           d="m 0,0 -20.382,10.826 7.123,-21.952 4.218,8.347 z" /></g><g
         id="g832"><g
           clip-path="url(#clipPath838)"
           id="g834"><path
             inkscape:connector-curvature="0"
             id="path840"
             style="fill:#000000;fill-opacity:1;fill-rule:nonzero;stroke:none"
             d="m 67.263,82.657 h 2.413 v 5.489 h -2.413 z m 11.605,-2.486 h -1.114 v 7.976 H 71.04 v -1.796 h 4.393 v -6.18 h -4.43 l -0.019,-1.796 h 7.884 z m 1.245,2.486 h 2.413 v 5.489 h -2.413 z m 4.154,5.49 v -1.796 h 1.188 v -6.18 h -1.98 v -1.796 h 4.09 v 8.095 h 1.51 c 1.474,0 1.796,-1.206 1.796,-2.661 v -5.434 h 2.358 v 5.544 c 0,2.487 -0.589,4.228 -3.242,4.228 z m 9.81,-7.976 v -1.796 h 2.247 c 1.585,0 2.395,0.801 2.395,2.532 v 7.24 h -3.666 v -1.796 h 1.382 v -4.873 c 0,-1.105 -0.065,-1.307 -0.893,-1.307 z" /></g></g><g
         id="text848"
         style="font-variant:normal;font-weight:bold;font-stretch:normal;font-size:5.55660009px;font-family:'Almoni DL AAA';-inkscape-font-specification:AlmoniDLAAA-Bold;writing-mode:lr-tb;fill:#000000;fill-opacity:1;fill-rule:nonzero;stroke:none"
         transform="matrix(1,0,0,-1,31.2229,71.9354)"
         aria-label="הרובחת
תמדקתמ
לארשיל"><path
           id="path1711"
           style="font-style:normal;font-variant:normal;font-weight:bold;font-stretch:normal;font-family:'Almoni Neue DL 4.0 AAA';-inkscape-font-specification:'Almoni Neue DL 4.0 AAA Bold'"
           d="M 2.7926953,0 H 2.0105486 V -2.2744633 H 0.30230199 V -2.8790674 H 2.7926953 Z M 1.098844,-1.6458669 V 0 H 0.31189888 v -1.6458669 z"
           inkscape:connector-curvature="0" /><path
           id="path1713"
           style="font-style:normal;font-variant:normal;font-weight:bold;font-stretch:normal;font-family:'Almoni Neue DL 4.0 AAA';-inkscape-font-specification:'Almoni Neue DL 4.0 AAA Bold'"
           d="m 4.4989457,-1.5594948 q 0,-0.2735114 -0.052783,-0.4270617 Q 4.3933799,-2.1401068 4.2686203,-2.207285 4.1486592,-2.2744633 3.9279307,-2.2744633 H 3.1841716 v -0.6046041 h 0.9165031 q 0.4366586,0 0.6909762,0.1199611 0.2591161,0.1199612 0.3742788,0.3934726 0.1199611,0.2687129 0.1199611,0.7341622 V 0 H 4.4989457 Z"
           inkscape:connector-curvature="0" /><path
           id="path1715"
           style="font-style:normal;font-variant:normal;font-weight:bold;font-stretch:normal;font-family:'Almoni Neue DL 4.0 AAA';-inkscape-font-specification:'Almoni Neue DL 4.0 AAA Bold'"
           d="m 5.8101499,0 v -2.8790674 h 0.786945 V 0 Z"
           inkscape:connector-curvature="0" /><path
           id="path1717"
           style="font-style:normal;font-variant:normal;font-weight:bold;font-stretch:normal;font-family:'Almoni Neue DL 4.0 AAA';-inkscape-font-specification:'Almoni Neue DL 4.0 AAA Bold'"
           d="M 9.663945,-0.60460416 V 0 H 7.1927455 V -0.60460416 H 8.5219149 V -2.2744633 H 7.1927455 V -2.8790674 H 9.30886 v 2.27446324 z"
           inkscape:connector-curvature="0" /><path
           id="path1719"
           style="font-style:normal;font-variant:normal;font-weight:bold;font-stretch:normal;font-family:'Almoni Neue DL 4.0 AAA';-inkscape-font-specification:'Almoni Neue DL 4.0 AAA Bold'"
           d="m 11.612363,-2.8790674 q 0.374279,0 0.595007,0.1151627 0.225527,0.1151627 0.331093,0.3838756 0.105566,0.2639146 0.105566,0.7245653 V 0 h -0.782147 v -1.6458669 q 0,-0.2447207 -0.04319,-0.3790772 -0.04319,-0.1343565 -0.148751,-0.1919378 -0.100768,-0.057581 -0.283109,-0.057581 H 10.859007 V 0 h -0.786945 v -2.8790674 z"
           inkscape:connector-curvature="0" /><path
           id="path1721"
           style="font-style:normal;font-variant:normal;font-weight:bold;font-stretch:normal;font-family:'Almoni Neue DL 4.0 AAA';-inkscape-font-specification:'Almoni Neue DL 4.0 AAA Bold'"
           d="m 14.891516,-2.8790674 q 0.417464,0 0.671782,0.1199611 0.254318,0.1199612 0.36948,0.3886741 0.119961,0.2639145 0.119961,0.7149684 V 0 h -0.786945 v -1.5834871 q 0,-0.3838756 -0.124759,-0.5374259 -0.119961,-0.1535503 -0.422263,-0.1535503 h -0.34069 V 0 h -1.257193 v -0.60460416 h 0.508635 V -2.2744633 h -0.340689 v -0.6046041 z"
           inkscape:connector-curvature="0" /><path
           id="path1723"
           style="font-style:normal;font-variant:normal;font-weight:bold;font-stretch:normal;font-family:'Almoni Neue DL 4.0 AAA';-inkscape-font-specification:'Almoni Neue DL 4.0 AAA Bold'"
           d="m -0.58917228,2.2496743 q 0.41746477,0 0.67178239,0.1199612 0.25431762,0.1199611 0.36948032,0.3886741 0.11996114,0.2639145 0.11996114,0.7149684 v 1.6554637 h -0.78694509 v -1.583487 q 0,-0.3838757 -0.12475959,-0.5374259 Q -0.45961425,2.8542785 -0.76191633,2.8542785 H -1.102606 V 5.1287417 H -2.3597987 V 4.5241376 h 0.5086352 V 2.8542785 H -2.1918531 V 2.2496743 Z"
           inkscape:connector-curvature="0" /><path
           id="path1725"
           style="font-style:normal;font-variant:normal;font-weight:bold;font-stretch:normal;font-family:'Almoni Neue DL 4.0 AAA';-inkscape-font-specification:'Almoni Neue DL 4.0 AAA Bold'"
           d="m 2.531132,2.2496743 q 0.4366586,0 0.6957746,0.139155 0.2639145,0.1391549 0.3838757,0.4366585 0.1247596,0.2975036 0.1247596,0.7869451 V 5.1287417 H 2.3247988 V 4.5241376 h 0.623798 V 3.6316267 q 0,-0.4222632 -0.1199612,-0.5998057 Q 2.7086745,2.8542785 2.3871786,2.8542785 H 2.2384268 L 1.8545512,5.1287417 H 1.0628076 L 1.4658771,2.8542785 H 1.1011952 V 2.2496743 Z"
           inkscape:connector-curvature="0" /><path
           id="path1727"
           style="font-style:normal;font-variant:normal;font-weight:bold;font-stretch:normal;font-family:'Almoni Neue DL 4.0 AAA';-inkscape-font-specification:'Almoni Neue DL 4.0 AAA Bold'"
           d="M 6.3908769,2.8542785 H 6.0837764 V 5.1287417 H 5.2968313 V 2.8542785 H 4.0732277 V 2.2496743 h 2.3176492 z"
           inkscape:connector-curvature="0" /><path
           id="path1729"
           style="font-style:normal;font-variant:normal;font-weight:bold;font-stretch:normal;font-family:'Almoni Neue DL 4.0 AAA';-inkscape-font-specification:'Almoni Neue DL 4.0 AAA Bold'"
           d="m 9.4939502,3.9051381 q 0,0.6573871 -0.2783099,0.9404953 Q 8.9421289,5.1287417 8.3519201,5.1287417 H 8.0976025 V 4.5241376 h 0.129558 q 0.2447208,0 0.3646819,-0.1247596 Q 8.7118035,4.2746184 8.7118035,3.914735 V 2.8542785 H 6.9411771 V 2.2496743 H 9.4939502 Z M 7.7377191,3.4828749 V 5.8485086 H 6.950774 V 3.4828749 Z"
           inkscape:connector-curvature="0" /><path
           id="path1731"
           style="font-style:normal;font-variant:normal;font-weight:bold;font-stretch:normal;font-family:'Almoni Neue DL 4.0 AAA';-inkscape-font-specification:'Almoni Neue DL 4.0 AAA Bold'"
           d="m 11.815937,2.2496743 q 0.417465,0 0.671782,0.1199612 0.254318,0.1199611 0.369481,0.3886741 0.119961,0.2639145 0.119961,0.7149684 v 1.6554637 h -0.786945 v -1.583487 q 0,-0.3838757 -0.12476,-0.5374259 -0.119961,-0.1535503 -0.422263,-0.1535503 h -0.34069 V 5.1287417 H 10.04531 V 4.5241376 h 0.508636 V 2.8542785 h -0.34069 V 2.2496743 Z"
           inkscape:connector-curvature="0" /><path
           id="path1733"
           style="font-style:normal;font-variant:normal;font-weight:bold;font-stretch:normal;font-family:'Almoni Neue DL 4.0 AAA';-inkscape-font-specification:'Almoni Neue DL 4.0 AAA Bold'"
           d="m 14.936241,2.2496743 q 0.436659,0 0.695775,0.139155 0.263914,0.1391549 0.383875,0.4366585 0.12476,0.2975036 0.12476,0.7869451 V 5.1287417 H 14.729908 V 4.5241376 h 0.623798 V 3.6316267 q 0,-0.4222632 -0.119961,-0.5998057 Q 15.113784,2.8542785 14.792288,2.8542785 H 14.643536 L 14.25966,5.1287417 H 13.467917 L 13.870986,2.8542785 H 13.506304 V 2.2496743 Z"
           inkscape:connector-curvature="0" /><path
           id="path1735"
           style="font-style:normal;font-variant:normal;font-weight:bold;font-stretch:normal;font-family:'Almoni Neue DL 4.0 AAA';-inkscape-font-specification:'Almoni Neue DL 4.0 AAA Bold'"
           d="M 1.7625747,7.9830212 H 0.45739744 V 6.8985725 H 1.205955 V 7.378417 h 1.5642933 l -0.978883,2.879067 H 0.96603269 Z"
           inkscape:connector-curvature="0" /><path
           id="path1737"
           style="font-style:normal;font-variant:normal;font-weight:bold;font-stretch:normal;font-family:'Almoni Neue DL 4.0 AAA';-inkscape-font-specification:'Almoni Neue DL 4.0 AAA Bold'"
           d="M 5.0386272,10.257484 4.0645427,8.7651678 Q 3.9685738,8.798757 3.9253878,8.885129 3.8870002,8.971501 3.8870002,9.1250513 V 10.257484 H 3.109652 V 9.1298497 q 0,-0.3406896 0.1583487,-0.571015 Q 3.4263494,8.3285093 3.7382484,8.2661295 L 3.1576365,7.378417 H 3.9541784 L 4.8274956,8.7123849 Q 4.9330614,8.6787958 4.9762474,8.5972222 5.0242318,8.5108502 5.0242318,8.3572999 V 7.378417 h 0.7821467 v 1.0124721 q 0,0.3502865 -0.1775425,0.5566197 -0.1775425,0.2015347 -0.4606508,0.2831083 l 0.6717824,1.0268669 z"
           inkscape:connector-curvature="0" /><path
           id="path1739"
           style="font-style:normal;font-variant:normal;font-weight:bold;font-stretch:normal;font-family:'Almoni Neue DL 4.0 AAA';-inkscape-font-specification:'Almoni Neue DL 4.0 AAA Bold'"
           d="m 7.5384059,8.6979896 q 0,-0.2735114 -0.052783,-0.4270617 Q 7.4328401,8.1173777 7.3080805,8.0501994 7.1881194,7.9830212 6.9673909,7.9830212 H 6.2236318 V 7.378417 h 0.9165031 q 0.4366586,0 0.6909762,0.1199612 0.2591161,0.1199611 0.3742788,0.3934725 0.1199611,0.268713 0.1199611,0.7341622 V 10.257484 H 7.5384059 Z"
           inkscape:connector-curvature="0" /><path
           id="path1741"
           style="font-style:normal;font-variant:normal;font-weight:bold;font-stretch:normal;font-family:'Almoni Neue DL 4.0 AAA';-inkscape-font-specification:'Almoni Neue DL 4.0 AAA Bold'"
           d="m 12.054972,8.9091212 q 0,0.484643 -0.148752,0.7821466 -0.148752,0.2927052 -0.465449,0.4318602 -0.311899,0.134356 -0.825333,0.134356 H 9.0319508 L 8.710455,7.378417 h 0.7629528 l 0.2447208,2.2744633 h 0.7533564 q 0.316697,0 0.494239,-0.076775 0.182341,-0.076775 0.259117,-0.2543176 0.07677,-0.1775425 0.07677,-0.4942399 V 7.378417 h 0.753356 z M 10.08281,7.378417 h 0.738961 V 9.1730357 H 10.08281 Z"
           inkscape:connector-curvature="0" /><path
           id="path1743"
           style="font-style:normal;font-variant:normal;font-weight:bold;font-stretch:normal;font-family:'Almoni Neue DL 4.0 AAA';-inkscape-font-specification:'Almoni Neue DL 4.0 AAA Bold'"
           d="M 12.647551,9.0866637 V 7.378417 h 0.786945 v 1.7082467 z"
           inkscape:connector-curvature="0" /><path
           id="path1745"
           style="font-style:normal;font-variant:normal;font-weight:bold;font-stretch:normal;font-family:'Almoni Neue DL 4.0 AAA';-inkscape-font-specification:'Almoni Neue DL 4.0 AAA Bold'"
           d="M 15.254,7.9830212 H 13.948822 V 6.8985725 H 14.69738 V 7.378417 h 1.564293 l -0.978883,2.879067 h -0.825332 z"
           inkscape:connector-curvature="0" /></g><path
         inkscape:connector-curvature="0"
         id="path850"
         style="fill:#000000;fill-opacity:1;fill-rule:nonzero;stroke:none"
         d="m 56.071,61.655 h 3.572 v 13.096 h -3.572 z" /><path
         inkscape:connector-curvature="0"
         id="path852"
         style="fill:#000000;fill-opacity:1;fill-rule:nonzero;stroke:none"
         d="M 50.678,58.877 H 54.25 V 74.751 H 50.678 Z" /><g
         transform="translate(65.1949,77.5281)"
         id="g854"><path
           inkscape:connector-curvature="0"
           id="path856"
           style="fill:#000000;fill-opacity:1;fill-rule:nonzero;stroke:none"
           d="M 0,0 H -3.572 V -5.556 H 2.495 L 1.359,-8.739 -1.297,-15.873 H 2.545 L 7.426,-2.778 H 0 Z" /></g><path
         inkscape:connector-curvature="0"
         id="path858"
         style="fill:#000000;fill-opacity:1;fill-rule:nonzero;stroke:none"
         d="m 80.345,67.21 h 3.968 v 7.54 h -3.968 z" /><g
         id="g860"><g
           clip-path="url(#clipPath866)"
           id="g862"><g
             transform="translate(95.9338,66.7212)"
             id="g868"><path
               inkscape:connector-curvature="0"
               id="path870"
               style="fill:#000000;fill-opacity:1;fill-rule:nonzero;stroke:none"
               d="m 0,0 c 0.375,0.142 0.675,0.332 0.927,0.502 1.217,0.707 1.834,2 1.834,3.844 V 8.029 H -0.414 V 4.056 c 0,-1.351 -0.49,-1.694 -1.022,-1.785 l -0.241,0.26 -3.761,5.498 H -9.403 L -6.556,3.955 C -7.386,3.676 -8.023,3.164 -8.45,2.434 -8.911,1.708 -9.144,0.758 -9.144,-0.389 v -4.678 h 3.572 v 5.374 c 0,1.048 0.131,1.391 0.552,1.59 l 4.413,-6.964 h 4.056 z" /></g></g></g><path
         inkscape:connector-curvature="0"
         id="path872"
         style="fill:#000000;fill-opacity:1;fill-rule:nonzero;stroke:none"
         d="m 74.091,67.21 h 3.968 v 7.54 h -3.968 z" /></g></g></svg>